<svg width="206" height="44" viewBox="0 0 206 44" fill="none" xmlns="http://www.w3.org/2000/svg">
<g id="PCFC logo" clip-path="url(#clip0_158_12156)">
<g id="Group">
<g id="Group_2">
<g id="Group_3">
<path id="Vector" d="M0.261719 33.8853H2.83617C4.01431 33.8853 4.6252 34.5448 4.6252 35.6439C4.6252 36.7431 4.01431 37.4026 2.83617 37.4026H1.04715V39.8208H0.261719V33.8853ZM1.04715 36.6992H2.57436C3.44706 36.6992 3.83977 36.3035 3.83977 35.6C3.83977 34.8965 3.44706 34.5008 2.57436 34.5008H1.04715V36.6992Z" fill="#575756"/>
<path id="Vector_2" d="M7.28717 35.3804C8.63984 35.3804 9.338 36.3477 9.338 37.6227C9.338 38.8538 8.63984 39.865 7.28717 39.865C5.93449 39.865 5.23633 38.8978 5.23633 37.6227C5.23633 36.3916 5.93449 35.3804 7.28717 35.3804ZM7.28717 39.2495C8.02896 39.2495 8.59621 38.6779 8.59621 37.6227C8.59621 36.5675 7.98532 35.9959 7.28717 35.9959C6.58901 35.9959 5.97812 36.5675 5.97812 37.6227C5.97812 38.6779 6.54537 39.2495 7.28717 39.2495Z" fill="#575756"/>
<path id="Vector_3" d="M10.123 35.5123H10.7776V36.3916C11.1266 35.6881 11.563 35.3804 12.3484 35.3804V36.1278C11.2139 36.1278 10.8212 36.7873 10.8212 37.8425V39.7331H10.123V35.5123Z" fill="#575756"/>
<path id="Vector_4" d="M13.8325 35.5124H14.6616V36.1279H13.8325V38.7659C13.8325 39.0737 13.9198 39.1616 14.3561 39.1616H14.6616V39.7772H14.138C13.3962 39.7772 13.1344 39.6453 13.1344 38.8539V36.1279H12.3926V35.5124H13.1344V34.2373H13.8325V35.5124Z" fill="#575756"/>
<path id="Vector_5" d="M15.8837 38.4141C15.9273 39.0296 16.451 39.2495 17.0182 39.2495C17.4546 39.2495 18.0218 39.1615 18.0218 38.6339C18.0218 38.1063 17.3237 38.0184 16.6255 37.8425C15.9273 37.6666 15.2292 37.4468 15.2292 36.6554C15.2292 35.7761 16.0582 35.4243 16.8 35.4243C17.7164 35.4243 18.4582 35.7321 18.5454 36.7433H17.8909C17.8473 36.2157 17.3673 36.0399 16.8873 36.0399C16.451 36.0399 15.971 36.1718 15.971 36.5675C15.971 37.0511 16.7128 37.139 17.3673 37.3149C18.0654 37.4908 18.7636 37.7106 18.7636 38.546C18.7636 39.5572 17.8036 39.909 16.9746 39.909C16.0146 39.909 15.2292 39.5133 15.1855 38.4581H15.8837V38.4141Z" fill="#575756"/>
<path id="Vector_6" d="M19.7227 38.8535H20.639V39.6889C20.639 40.3044 20.3772 40.7881 19.7227 40.9639V40.5682C20.0717 40.4363 20.2026 40.0406 20.2026 39.7768H19.7227V38.8535Z" fill="#575756"/>
<path id="Vector_7" d="M27.3596 35.6441C27.185 34.8087 26.5305 34.369 25.7015 34.369C24.3051 34.369 23.7379 35.5122 23.7379 36.7432C23.7379 38.1062 24.3488 39.2054 25.7451 39.2054C26.7487 39.2054 27.3596 38.458 27.4468 37.4907H28.2323C28.1014 38.9416 27.185 39.8649 25.7015 39.8649C23.8688 39.8649 22.9961 38.5019 22.9961 36.7872C22.9961 35.0725 23.9561 33.6655 25.7451 33.6655C26.9669 33.6655 27.9705 34.325 28.145 35.6001H27.3596V35.6441Z" fill="#575756"/>
<path id="Vector_8" d="M32.5513 39.777H31.8968V39.0736C31.5914 39.6012 31.1114 39.865 30.5005 39.865C29.366 39.865 29.0605 39.2055 29.0605 38.3261V35.5122H29.7587V38.414C29.7587 38.9417 30.1078 39.2934 30.6314 39.2934C31.4605 39.2934 31.8968 38.7218 31.8968 37.9744V35.5562H32.595V39.777H32.5513Z" fill="#575756"/>
<path id="Vector_9" d="M34.0348 38.4141C34.0784 39.0296 34.602 39.2495 35.1693 39.2495C35.6056 39.2495 36.1729 39.1615 36.1729 38.6339C36.1729 38.1063 35.4747 38.0184 34.7766 37.8425C34.0784 37.6666 33.3802 37.4468 33.3802 36.6554C33.3802 35.7761 34.2093 35.4243 34.9511 35.4243C35.8674 35.4243 36.6092 35.7321 36.6965 36.7433H35.9983C35.9547 36.2157 35.4747 36.0399 34.9947 36.0399C34.5584 36.0399 34.0784 36.1718 34.0784 36.5675C34.0784 37.0511 34.8202 37.139 35.4747 37.3149C36.1729 37.4908 36.871 37.7106 36.871 38.546C36.871 39.5572 35.9111 39.909 35.082 39.909C34.122 39.909 33.3366 39.5133 33.293 38.4581H34.0348V38.4141Z" fill="#575756"/>
<path id="Vector_10" d="M38.6607 35.5124H39.4897V36.1279H38.6607V38.7659C38.6607 39.0737 38.7479 39.1616 39.1843 39.1616H39.4897V39.7772H38.9661C38.2243 39.7772 37.9625 39.6453 37.9625 38.8539V36.1279H37.2207V35.5124H37.9625V34.2373H38.6607V35.5124Z" fill="#575756"/>
<path id="Vector_11" d="M42.1075 35.3804C43.4602 35.3804 44.1583 36.3477 44.1583 37.6227C44.1583 38.8538 43.4602 39.865 42.1075 39.865C40.7548 39.865 40.0566 38.8978 40.0566 37.6227C40.0566 36.3916 40.7548 35.3804 42.1075 35.3804ZM42.1075 39.2495C42.8493 39.2495 43.4165 38.6779 43.4165 37.6227C43.4165 36.5675 42.8056 35.9959 42.1075 35.9959C41.3657 35.9959 40.7984 36.5675 40.7984 37.6227C40.7984 38.6779 41.3657 39.2495 42.1075 39.2495Z" fill="#575756"/>
<path id="Vector_12" d="M44.987 35.5123H45.6415V36.1278C45.947 35.6442 46.4269 35.3804 46.9942 35.3804C47.5178 35.3804 47.9978 35.6002 48.1723 36.1278C48.4778 35.6881 48.9578 35.3804 49.4814 35.3804C50.3104 35.3804 50.8777 35.7321 50.8777 36.6115V39.7331H50.1795V36.9192C50.1795 36.3916 50.0486 35.9519 49.3505 35.9519C48.696 35.9519 48.2596 36.3916 48.2596 37.0511V39.6892H47.5614V36.8753C47.5614 36.3037 47.3869 35.908 46.776 35.908C45.947 35.908 45.6415 36.6554 45.6415 37.0072V39.6452H44.9434V35.5123H44.987Z" fill="#575756"/>
<path id="Vector_13" d="M52.4059 38.4141C52.4495 39.0296 52.9731 39.2495 53.5404 39.2495C53.9767 39.2495 54.544 39.1615 54.544 38.6339C54.544 38.1063 53.8458 38.0184 53.1476 37.8425C52.4495 37.6666 51.7513 37.4468 51.7513 36.6554C51.7513 35.7761 52.5804 35.4243 53.3222 35.4243C54.2385 35.4243 54.9803 35.7321 55.0676 36.7433H54.3694C54.3258 36.2157 53.8458 36.0399 53.3658 36.0399C52.9295 36.0399 52.4495 36.1718 52.4495 36.5675C52.4495 37.0511 53.1913 37.139 53.8458 37.3149C54.544 37.4908 55.2421 37.7106 55.2421 38.546C55.2421 39.5572 54.2822 39.909 53.4531 39.909C52.4931 39.909 51.7077 39.5133 51.6641 38.4581H52.4059V38.4141Z" fill="#575756"/>
<path id="Vector_14" d="M62.0919 39.7331C61.961 39.821 61.8301 39.865 61.6119 39.865C61.2628 39.865 61.001 39.6452 61.001 39.2055C60.6083 39.6452 60.0847 39.865 59.5174 39.865C58.732 39.865 58.1211 39.5133 58.1211 38.6779C58.1211 37.7106 58.8193 37.4908 59.561 37.3589C60.3465 37.227 61.001 37.2709 61.001 36.7433C61.001 36.1278 60.521 36.0399 60.041 36.0399C59.4301 36.0399 59.0374 36.2157 58.9938 36.8313H58.2956C58.3393 35.7761 59.1683 35.4243 60.0847 35.4243C60.8265 35.4243 61.6555 35.6002 61.6555 36.6114V38.8098C61.6555 39.1615 61.6555 39.2934 61.8737 39.2934C61.9173 39.2934 62.0046 39.2934 62.0919 39.2495V39.7331ZM60.9574 37.5787C60.6955 37.7986 60.1719 37.7986 59.692 37.8865C59.212 37.9744 58.8193 38.1503 58.8193 38.6339C58.8193 39.1176 59.212 39.2495 59.6483 39.2495C60.5646 39.2495 60.9574 38.6779 60.9574 38.2822V37.5787Z" fill="#575756"/>
<path id="Vector_15" d="M62.7468 35.5123H63.4013V36.1718C63.7067 35.6442 64.1867 35.3804 64.7976 35.3804C65.9321 35.3804 66.2375 36.0399 66.2375 36.9192V39.7331H65.5394V36.8753C65.5394 36.3477 65.1903 35.9959 64.6667 35.9959C63.8376 35.9959 63.4013 36.5675 63.4013 37.3149V39.7331H62.7031V35.5123H62.7468Z" fill="#575756"/>
<path id="Vector_16" d="M71.0808 39.7769H70.3827V39.2053C70.1645 39.6889 69.5972 39.8648 69.03 39.8648C67.7209 39.8648 67.0664 38.8096 67.0664 37.6225C67.0664 36.4354 67.7209 35.4241 68.9863 35.4241C69.4227 35.4241 70.0336 35.6 70.339 36.0836V33.8853H71.0372V39.7769H71.0808ZM69.1172 39.2493C70.0336 39.2493 70.4263 38.4579 70.4263 37.6225C70.4263 36.7871 70.0336 35.9957 69.0736 35.9957C68.1136 35.9957 67.8082 36.8311 67.8082 37.6664C67.8082 38.4579 68.2009 39.2493 69.1172 39.2493Z" fill="#575756"/>
<path id="Vector_17" d="M74.5273 33.8853H78.3672V34.5448H75.3128V36.4354H78.0181V37.0949H75.3128V39.7769H74.5273V33.8853Z" fill="#575756"/>
<path id="Vector_18" d="M79.1094 35.5123H79.7639V36.3916C80.113 35.6881 80.5493 35.3804 81.3347 35.3804V36.1278C80.2002 36.1278 79.8075 36.7873 79.8075 37.8425V39.7331H79.1094V35.5123Z" fill="#575756"/>
<path id="Vector_19" d="M85.1758 38.4141C85.0013 39.3374 84.3031 39.865 83.3868 39.865C82.0341 39.865 81.3796 38.9417 81.3359 37.6227C81.3359 36.3476 82.165 35.4243 83.3431 35.4243C84.8267 35.4243 85.3067 36.8313 85.2631 37.8865H82.0777C82.0341 38.6339 82.4704 39.2934 83.3868 39.2934C83.954 39.2934 84.3467 39.0296 84.4777 38.4581H85.1758V38.4141ZM84.4777 37.227C84.434 36.5675 83.954 36.0399 83.2559 36.0399C82.5141 36.0399 82.0777 36.6114 82.0341 37.227H84.4777Z" fill="#575756"/>
<path id="Vector_20" d="M89.5821 38.4141C89.4075 39.3374 88.7094 39.865 87.793 39.865C86.4403 39.865 85.7858 38.9417 85.7422 37.6227C85.7422 36.3476 86.5713 35.4243 87.7494 35.4243C89.233 35.4243 89.713 36.8313 89.6693 37.8865H86.484C86.4403 38.6339 86.8767 39.2934 87.793 39.2934C88.3603 39.2934 88.753 39.0296 88.8839 38.4581H89.5821V38.4141ZM88.8839 37.227C88.8403 36.5675 88.3603 36.0399 87.6621 36.0399C86.9203 36.0399 86.484 36.6114 86.4403 37.227H88.8839Z" fill="#575756"/>
<path id="Vector_21" d="M92.2878 39.1174L95.9095 34.5448H92.5496V33.8853H96.8258V34.5448L93.2041 39.1174H96.9131V39.7769H92.2441V39.1174H92.2878Z" fill="#575756"/>
<path id="Vector_22" d="M99.4434 35.3804C100.796 35.3804 101.494 36.3477 101.494 37.6227C101.494 38.8538 100.796 39.865 99.4434 39.865C98.0907 39.865 97.3926 38.8978 97.3926 37.6227C97.3926 36.3916 98.1344 35.3804 99.4434 35.3804ZM99.4434 39.2495C100.185 39.2495 100.752 38.6779 100.752 37.6227C100.752 36.5675 100.142 35.9959 99.4434 35.9959C98.7016 35.9959 98.1344 36.5675 98.1344 37.6227C98.1344 38.6779 98.7453 39.2495 99.4434 39.2495Z" fill="#575756"/>
<path id="Vector_23" d="M102.324 35.5123H102.979V36.1718C103.284 35.6442 103.764 35.3804 104.375 35.3804C105.51 35.3804 105.815 36.0399 105.815 36.9192V39.7331H105.16V36.8753C105.16 36.3477 104.811 35.9959 104.288 35.9959C103.459 35.9959 103.022 36.5675 103.022 37.3149V39.7331H102.324V35.5123Z" fill="#575756"/>
<path id="Vector_24" d="M110.482 38.4141C110.308 39.3374 109.61 39.865 108.693 39.865C107.341 39.865 106.686 38.9417 106.643 37.6227C106.643 36.3476 107.472 35.4243 108.65 35.4243C110.133 35.4243 110.613 36.8313 110.57 37.8865H107.384C107.341 38.6339 107.777 39.2934 108.693 39.2934C109.261 39.2934 109.653 39.0296 109.784 38.4581H110.482V38.4141ZM109.828 37.227C109.784 36.5675 109.304 36.0399 108.606 36.0399C107.864 36.0399 107.428 36.6114 107.384 37.227H109.828Z" fill="#575756"/>
<path id="Vector_25" d="M117.77 35.6441C117.595 34.8087 116.941 34.369 116.112 34.369C114.715 34.369 114.148 35.5122 114.148 36.7432C114.148 38.1062 114.759 39.2054 116.155 39.2054C117.159 39.2054 117.77 38.458 117.857 37.4907H118.642C118.512 38.9416 117.595 39.8649 116.112 39.8649C114.279 39.8649 113.406 38.5019 113.406 36.7872C113.406 35.0725 114.366 33.6655 116.155 33.6655C117.377 33.6655 118.381 34.325 118.555 35.6001H117.77V35.6441Z" fill="#575756"/>
<path id="Vector_26" d="M121.305 35.3804C122.657 35.3804 123.356 36.3477 123.356 37.6227C123.356 38.8538 122.657 39.865 121.305 39.865C119.952 39.865 119.254 38.8978 119.254 37.6227C119.254 36.3916 119.952 35.3804 121.305 35.3804ZM121.305 39.2495C122.047 39.2495 122.614 38.6779 122.614 37.6227C122.614 36.5675 122.003 35.9959 121.305 35.9959C120.563 35.9959 119.996 36.5675 119.996 37.6227C119.996 38.6779 120.563 39.2495 121.305 39.2495Z" fill="#575756"/>
<path id="Vector_27" d="M124.141 35.5123H124.795V36.3916C125.144 35.6881 125.581 35.3804 126.366 35.3804V36.1278C125.231 36.1278 124.839 36.7873 124.839 37.8425V39.7331H124.141V35.5123Z" fill="#575756"/>
<path id="Vector_28" d="M126.934 35.5123H127.632V36.0838C127.85 35.6002 128.417 35.4243 128.984 35.4243C130.293 35.4243 130.948 36.4795 130.948 37.6667C130.948 38.8538 130.293 39.865 129.028 39.865C128.592 39.865 127.981 39.6891 127.675 39.2055V41.4039H126.977V35.5123H126.934ZM128.897 35.9959C127.981 35.9959 127.588 36.7873 127.588 37.6227C127.588 38.4581 127.981 39.2495 128.941 39.2495C129.901 39.2495 130.206 38.4141 130.206 37.5787C130.206 36.7873 129.813 35.9959 128.897 35.9959Z" fill="#575756"/>
<path id="Vector_29" d="M133.609 35.3804C134.962 35.3804 135.66 36.3477 135.66 37.6227C135.66 38.8538 134.962 39.865 133.609 39.865C132.257 39.865 131.558 38.8978 131.558 37.6227C131.515 36.3916 132.257 35.3804 133.609 35.3804ZM133.609 39.2495C134.351 39.2495 134.918 38.6779 134.918 37.6227C134.918 36.5675 134.307 35.9959 133.609 35.9959C132.868 35.9959 132.3 36.5675 132.3 37.6227C132.257 38.6779 132.868 39.2495 133.609 39.2495Z" fill="#575756"/>
<path id="Vector_30" d="M136.445 35.5123H137.1V36.3916C137.449 35.6881 137.885 35.3804 138.671 35.3804V36.1278C137.536 36.1278 137.143 36.7873 137.143 37.8425V39.7331H136.445V35.5123Z" fill="#575756"/>
<path id="Vector_31" d="M142.947 39.7331C142.816 39.821 142.686 39.865 142.467 39.865C142.118 39.865 141.856 39.6452 141.856 39.2055C141.464 39.6452 140.94 39.865 140.373 39.865C139.587 39.865 138.977 39.5133 138.977 38.6779C138.977 37.7106 139.675 37.4908 140.417 37.3589C141.202 37.227 141.856 37.2709 141.856 36.7433C141.856 36.1278 141.376 36.0399 140.896 36.0399C140.286 36.0399 139.893 36.2157 139.849 36.8313H139.151C139.195 35.7761 140.024 35.4243 140.94 35.4243C141.682 35.4243 142.511 35.6002 142.511 36.6114V38.8098C142.511 39.1615 142.511 39.2934 142.729 39.2934C142.773 39.2934 142.86 39.2934 142.947 39.2495V39.7331ZM141.813 37.5787C141.551 37.7986 141.027 37.7986 140.547 37.8865C140.067 37.9744 139.675 38.1503 139.675 38.6339C139.675 39.1176 140.067 39.2495 140.504 39.2495C141.42 39.2495 141.813 38.6779 141.813 38.2822V37.5787Z" fill="#575756"/>
<path id="Vector_32" d="M144.563 35.5124H145.392V36.1279H144.563V38.7659C144.563 39.0737 144.65 39.1616 145.087 39.1616H145.392V39.7772H144.868C144.127 39.7772 143.865 39.6453 143.865 38.8539V36.1279H143.123V35.5124H143.865V34.2373H144.563V35.5124Z" fill="#575756"/>
<path id="Vector_33" d="M146.919 34.7207H146.221V33.8413H146.919V34.7207ZM146.221 35.5121H146.919V39.7769H146.221V35.5121Z" fill="#575756"/>
<path id="Vector_34" d="M149.799 35.3804C151.152 35.3804 151.85 36.3477 151.85 37.6227C151.85 38.8538 151.152 39.865 149.799 39.865C148.446 39.865 147.748 38.8978 147.748 37.6227C147.748 36.3916 148.49 35.3804 149.799 35.3804ZM149.799 39.2495C150.541 39.2495 151.108 38.6779 151.108 37.6227C151.108 36.5675 150.497 35.9959 149.799 35.9959C149.057 35.9959 148.49 36.5675 148.49 37.6227C148.49 38.6779 149.101 39.2495 149.799 39.2495Z" fill="#575756"/>
<path id="Vector_35" d="M152.678 35.5123H153.333V36.1718C153.638 35.6442 154.118 35.3804 154.729 35.3804C155.864 35.3804 156.169 36.0399 156.169 36.9192V39.7331H155.471V36.8753C155.471 36.3477 155.122 35.9959 154.598 35.9959C153.769 35.9959 153.333 36.5675 153.333 37.3149V39.7331H152.635V35.5123H152.678Z" fill="#575756"/>
</g>
<g id="Group_4">
<path id="Vector_36" d="M3.70896 25.8831C3.70896 27.1582 3.18534 28.2134 1.8763 28.2134C0.567253 28.2134 0 27.1582 0 25.8831C0 24.652 0.523618 23.5528 1.83266 23.5528C3.14171 23.5528 3.70896 24.652 3.70896 25.8831ZM3.0108 25.8831C3.0108 24.74 2.61809 24.1684 1.83266 24.1684C1.04724 24.1684 0.698157 24.7839 0.698157 25.8831C0.698157 27.0262 1.09087 27.5978 1.8763 27.5978C2.66172 27.5978 3.0108 27.0262 3.0108 25.8831ZM1.17814 22.2778C0.916331 22.2778 0.741792 22.1459 0.741792 21.8381C0.741792 21.5743 0.872696 21.3984 1.17814 21.3984C1.48358 21.3984 1.57085 21.5303 1.57085 21.8381C1.61449 22.1459 1.48358 22.2778 1.17814 22.2778ZM2.48718 22.2778C2.22538 22.2778 2.09447 22.1459 2.09447 21.8381C2.09447 21.5743 2.22538 21.3984 2.48718 21.3984C2.74899 21.3984 2.92353 21.5303 2.92353 21.8381C2.92353 22.1459 2.79263 22.2778 2.48718 22.2778Z" fill="#575756"/>
<path id="Vector_37" d="M8.46447 27.5981V28.2576H7.11179C7.02452 29.3568 6.45727 30.1922 5.23549 30.1922C4.97368 30.1922 4.53734 30.1043 4.18826 29.9724L3.88281 29.2249C4.3628 29.5327 4.79914 29.5767 5.14822 29.5767C6.02092 29.5767 6.45727 28.8292 6.45727 27.9938V23.9488L7.15542 23.729V27.6421H8.46447V27.5981Z" fill="#575756"/>
<path id="Vector_38" d="M14.9222 28.2572H8.37695V27.5977H12.7841V26.9382C12.7841 25.6192 12.6968 24.2562 11.1696 24.2562C10.6896 24.2562 10.166 24.476 9.64236 24.9596L9.20601 24.52C9.86054 23.9044 10.5151 23.6406 11.1696 23.6406C13.1768 23.6406 13.4822 25.2234 13.4822 26.7623V27.6416H14.9222V28.2572Z" fill="#575756"/>
<path id="Vector_39" d="M17.0613 26.4989C17.0613 27.5102 16.4068 28.2137 15.3596 28.2137H14.8359V27.5541H15.3159C16.0141 27.5541 16.3632 27.1584 16.3632 26.367V22.0143L17.0613 21.7944V26.4989Z" fill="#575756"/>
<path id="Vector_40" d="M18.8075 28.2572H18.1094V21.9698L18.8075 21.75V28.2572Z" fill="#575756"/>
<path id="Vector_41" d="M26.2237 28.2573H25.8746C25.2201 28.2573 24.7401 28.0374 24.4347 27.5538C24.1729 28.0374 23.6929 28.2573 22.9947 28.2573C21.9475 28.2573 21.293 27.5538 21.293 25.971C21.293 24.6959 21.773 23.7286 22.9947 23.6847H24.871V26.4106C24.871 27.2021 25.2201 27.5978 25.9619 27.5978H26.2237V28.2573ZM24.1729 24.3002H23.082C22.3402 24.3002 21.9475 24.8718 21.9475 25.971C21.9475 27.1141 22.2966 27.5978 23.082 27.5978C23.8238 27.5978 24.1729 27.1141 24.1729 25.971V24.3002ZM22.8202 22.4096C22.5584 22.4096 22.3838 22.2777 22.3838 21.9699C22.3838 21.6622 22.5147 21.5303 22.8202 21.5303C23.1256 21.5303 23.2129 21.6622 23.2129 21.9699C23.2129 22.2777 23.1256 22.4096 22.8202 22.4096ZM24.1292 22.4096C23.8674 22.4096 23.7365 22.2777 23.7365 21.9699C23.7365 21.6622 23.8674 21.5303 24.1292 21.5303C24.391 21.5303 24.5656 21.6622 24.5656 21.9699C24.5656 22.2777 24.4347 22.4096 24.1292 22.4096Z" fill="#575756"/>
<path id="Vector_42" d="M30.8929 28.2573H29.6275C29.453 28.2573 29.0603 28.2133 28.7984 28.0814C28.5803 28.2133 28.2748 28.2573 27.9694 28.2573H26.1367V27.5978C26.1367 27.5978 26.7912 27.5978 27.053 27.5978C27.4894 27.5978 27.8385 27.5978 28.013 27.5978C27.0967 26.9383 26.6603 26.015 26.704 25.1796C26.7912 24.1244 27.5767 23.5968 28.5803 23.5968C29.7584 23.6407 30.4566 24.4322 30.4566 25.6193C30.4566 26.3667 30.1511 27.1142 29.5402 27.5538C29.7584 27.5978 29.8457 27.5978 30.1511 27.5978C30.3257 27.5978 30.8493 27.5978 30.8493 27.5978V28.2573H30.8929ZM28.7984 27.378C29.453 27.1142 29.8457 26.3667 29.8457 25.6632C29.8457 24.8279 29.3657 24.2563 28.5366 24.2123C27.8385 24.2123 27.3585 24.652 27.3585 25.3555C27.3585 25.7512 27.4894 26.1029 27.7076 26.4986C27.9257 26.8504 28.3621 27.2021 28.7984 27.378ZM27.7948 22.3217C27.533 22.3217 27.3585 22.1898 27.3585 21.8821C27.3585 21.6183 27.4894 21.4424 27.7948 21.4424C28.1003 21.4424 28.1876 21.5743 28.1876 21.8821C28.2312 22.1898 28.1003 22.3217 27.7948 22.3217ZM29.1039 22.3217C28.8421 22.3217 28.7112 22.1898 28.7112 21.8821C28.7112 21.6183 28.8421 21.4424 29.1039 21.4424C29.3657 21.4424 29.5402 21.5743 29.5402 21.8821C29.5402 22.1898 29.4093 22.3217 29.1039 22.3217Z" fill="#575756"/>
<path id="Vector_43" d="M31.8975 22.1901L32.5957 21.9702V25.9273C33.2938 24.5203 34.5592 23.7729 35.6501 23.8608C36.9591 23.9487 37.8755 25.004 37.8755 26.8506C37.8755 27.0704 37.8755 27.2903 37.8318 27.598H38.7045V28.2575H30.8066V27.598H31.8975V22.1901ZM37.0901 27.598C37.1337 27.3342 37.1337 27.1144 37.1337 26.9385C37.1337 25.3117 36.5664 24.3884 35.3447 24.3884C34.0793 24.3884 32.5957 25.9273 32.4648 27.642H37.0901V27.598Z" fill="#575756"/>
<path id="Vector_44" d="M42.108 28.2573H41.6717C41.1044 28.2573 40.5808 27.9935 40.3626 27.5538C40.0572 27.9935 39.5772 28.2573 38.9663 28.2573H38.4863V27.5978H38.879C39.5772 27.5978 39.9699 27.2021 39.9699 26.4106V23.9045L40.6681 23.6847V26.4986C40.6681 27.246 41.0171 27.5978 41.7153 27.5978H42.1517V28.2573H42.108ZM40.3626 22.4096C40.1008 22.4096 39.9263 22.2777 39.9263 21.9699C39.9263 21.6622 40.0572 21.5303 40.3626 21.5303C40.6681 21.5303 40.7553 21.6622 40.7553 21.9699C40.7553 22.2777 40.6244 22.4096 40.3626 22.4096Z" fill="#575756"/>
<path id="Vector_45" d="M48.7393 28.2572H48.2593C47.6921 28.2572 47.2993 28.1253 46.9503 27.7736C46.7321 28.521 46.1648 28.9167 45.3358 28.9167C44.5067 28.9167 44.0267 28.521 43.7213 27.8615C43.4158 28.1253 43.0231 28.2572 42.5431 28.2572H42.0195V27.5977H42.4995C43.1104 27.5977 43.5031 27.246 43.5468 26.6304C43.5904 25.4433 44.0704 24.564 45.3358 24.564C46.4703 24.564 46.9939 25.2674 47.0812 26.4106C47.0812 27.202 47.4302 27.5977 48.172 27.5977H48.7393V28.2572ZM45.3358 25.2235C44.594 25.2235 44.2885 25.7071 44.2885 26.7184C44.2885 27.7736 44.594 28.2572 45.3358 28.2572C46.0776 28.2572 46.383 27.7736 46.383 26.7184C46.383 25.7071 46.0776 25.2235 45.3358 25.2235Z" fill="#575756"/>
<path id="Vector_46" d="M50.8777 26.4989C50.8777 27.5102 50.2232 28.2137 49.176 28.2137H48.6523V27.5541H49.1323C49.8305 27.5541 50.1796 27.1584 50.1796 26.367V22.0143L50.8777 21.7944V26.4989Z" fill="#575756"/>
<path id="Vector_47" d="M52.6239 28.2572H51.9258V21.9698L52.6239 21.75V28.2572Z" fill="#575756"/>
<path id="Vector_48" d="M57.0312 27.8179C57.0312 29.2688 56.4203 30.1922 55.024 30.1922C54.6749 30.1922 54.3695 30.1042 54.064 29.9723L53.7149 29.1809C54.2386 29.4447 54.6749 29.5326 55.024 29.5326C55.8967 29.5326 56.333 28.8731 56.2894 27.9059C55.9839 28.1257 55.6349 28.2576 55.2422 28.2576C54.1513 28.2576 53.4531 27.5101 53.4531 26.0592C53.4531 24.5643 54.1076 23.8169 55.2422 23.8169C56.4203 23.8169 57.0748 24.7402 56.9875 25.9713V27.8179H57.0312ZM55.2422 24.4324C54.5004 24.4324 54.1513 24.96 54.1513 26.0592C54.1513 27.1144 54.5004 27.642 55.2422 27.642C55.9403 27.642 56.333 27.1144 56.333 26.0592C56.333 24.96 55.9839 24.4324 55.2422 24.4324Z" fill="#575756"/>
<path id="Vector_49" d="M66.281 26.4989C66.281 27.5541 65.5828 28.2137 64.5792 28.2137H61.1321C60.1721 28.2137 59.5176 27.5541 59.5176 26.4989V25.1799L60.2157 24.3445V26.411C60.2157 27.2024 60.5648 27.5981 61.3066 27.5981H64.5792C65.2774 27.5981 65.6265 27.2024 65.6265 26.411V22.0143L66.3246 21.7944V26.4989H66.281ZM64.1865 25.2678H61.3066L61.743 24.8282H62.1793V24.5644C62.1793 23.8609 62.6157 23.3333 63.3138 23.3333C63.6193 23.3333 63.8374 23.4652 64.0992 23.685L63.7502 24.0368C63.5756 23.8609 63.4011 23.773 63.2702 23.773C62.9211 23.773 62.6593 24.0807 62.6593 24.4764V24.8282H64.2301V25.2678H64.1865Z" fill="#575756"/>
<path id="Vector_50" d="M69.6847 27.8619C69.6847 29.1809 69.1611 30.1922 67.7648 30.1922C67.503 30.1922 67.0666 30.1043 66.7176 29.9724L66.4121 29.2249C66.8921 29.5327 67.3284 29.5767 67.6775 29.5767C68.5502 29.5767 68.9866 28.8292 68.9866 27.9938V23.9488L69.6847 23.729V27.8619Z" fill="#575756"/>
<path id="Vector_51" d="M71.4729 21.75V26.9821C71.4729 27.3778 71.6474 27.5976 72.0401 27.5976H73.0001V28.2572H71.9529C71.2111 28.2572 70.8184 27.8175 70.8184 27.0261V21.9698L71.4729 21.75Z" fill="#575756"/>
<path id="Vector_52" d="M79.5909 28.2572H79.1109C78.5436 28.2572 78.1509 28.1253 77.8018 27.7736C77.5837 28.521 77.0164 28.9167 76.1873 28.9167C75.3583 28.9167 74.8783 28.521 74.5728 27.8615C74.2674 28.1253 73.8747 28.2572 73.3947 28.2572H72.8711V27.5977H73.3511C73.962 27.5977 74.3547 27.246 74.3983 26.6304C74.4419 25.4433 74.9219 24.564 76.1873 24.564C77.3218 24.564 77.8455 25.2674 77.9327 26.4106C77.9327 27.202 78.2818 27.5977 79.0236 27.5977H79.5909V28.2572ZM76.1873 25.2235C75.4456 25.2235 75.1401 25.7071 75.1401 26.7184C75.1401 27.7736 75.4456 28.2572 76.1873 28.2572C76.9291 28.2572 77.2346 27.7736 77.2346 26.7184C77.2346 25.7071 76.9291 25.2235 76.1873 25.2235Z" fill="#575756"/>
<path id="Vector_53" d="M86.0472 28.2572H79.502V27.5977H83.9091V26.9382C83.9091 25.6192 83.8218 24.2562 82.2946 24.2562C81.8146 24.2562 81.291 24.476 80.7674 24.9596L80.331 24.52C80.9855 23.9044 81.6401 23.6406 82.2946 23.6406C84.3018 23.6406 84.6072 25.2234 84.6072 26.7623V27.6416H86.0472V28.2572ZM82.4255 30.4116C82.1637 30.4116 81.9891 30.2797 81.9891 29.9719C81.9891 29.7081 82.12 29.5322 82.4255 29.5322C82.7309 29.5322 82.8182 29.6641 82.8182 29.9719C82.8182 30.2357 82.6873 30.4116 82.4255 30.4116Z" fill="#575756"/>
<path id="Vector_54" d="M88.1863 26.4989C88.1863 27.5102 87.5318 28.2137 86.4846 28.2137H85.9609V27.5541H86.4409C87.1391 27.5541 87.4882 27.1584 87.4882 26.367V22.0143L88.1863 21.7944V26.4989Z" fill="#575756"/>
<path id="Vector_55" d="M89.9306 28.2572H89.2324V21.9698L89.9306 21.75V28.2572Z" fill="#575756"/>
<path id="Vector_56" d="M94.3378 27.8179C94.3378 29.2688 93.7269 30.1922 92.3306 30.1922C91.9815 30.1922 91.6761 30.1042 91.3707 29.9723L91.0216 29.1809C91.5452 29.4447 91.9815 29.5326 92.3306 29.5326C93.2033 29.5326 93.6397 28.8731 93.596 27.9059C93.2906 28.1257 92.9415 28.2576 92.5488 28.2576C91.4579 28.2576 90.7598 27.5101 90.7598 26.0592C90.7598 24.5643 91.4143 23.8169 92.5488 23.8169C93.7269 23.8169 94.3815 24.7402 94.2942 25.9713V27.8179H94.3378ZM92.5488 24.4324C91.807 24.4324 91.4579 24.96 91.4579 26.0592C91.4579 27.1144 91.807 27.642 92.5488 27.642C93.247 27.642 93.6397 27.1144 93.6397 26.0592C93.6397 24.96 93.2906 24.4324 92.5488 24.4324Z" fill="#575756"/>
<path id="Vector_57" d="M99.3135 24.476H96.4336L96.8699 24.0364H97.3063V23.8165C97.3063 23.1131 97.7426 22.5854 98.4408 22.5854C98.7462 22.5854 98.9644 22.7174 99.2262 22.9372L98.8771 23.2889C98.7026 23.1131 98.5281 23.0251 98.3972 23.0251C98.0481 23.0251 97.7863 23.3329 97.7863 23.7286V24.0803H99.3571V24.476H99.3135ZM96.8263 27.5538C96.8263 26.9822 96.9572 26.3227 97.219 25.6192L97.9608 25.0916C97.6117 26.0149 97.4808 26.8063 97.4808 27.3339C97.4808 28.521 98.0044 29.4443 99.2262 29.4443C100.23 29.4443 100.972 29.0486 101.015 28.1693C100.317 28.1693 99.9244 27.8176 99.7498 27.3339L100.055 26.6304C100.273 27.202 100.623 27.5098 101.103 27.5098H101.67V28.1693C101.67 29.2685 100.753 30.1039 99.1826 30.1039C97.6554 30.1918 96.8263 29.0926 96.8263 27.5538Z" fill="#575756"/>
<path id="Vector_58" d="M103.895 26.4986C103.895 27.5098 103.241 28.2133 102.194 28.2133H101.67V27.5538H102.15C102.848 27.5538 103.197 27.1581 103.197 26.3667V23.8605L103.895 23.6407V26.4986ZM102.237 22.4096C101.975 22.4096 101.844 22.2777 101.844 21.9699C101.844 21.6622 101.975 21.5303 102.237 21.5303C102.499 21.5303 102.674 21.6622 102.674 21.9699C102.674 22.2777 102.543 22.4096 102.237 22.4096Z" fill="#575756"/>
<path id="Vector_59" d="M105.64 28.2572H104.941V21.9698L105.64 21.75V28.2572Z" fill="#575756"/>
<path id="Vector_60" d="M108.04 30.1922C107.691 30.1922 107.385 30.1042 107.08 29.9723L106.731 29.1809C107.254 29.4447 107.691 29.5327 108.04 29.5327C108.825 29.5327 109.218 29.0051 109.305 28.2136H108.258C107.167 28.2136 106.469 27.4662 106.469 26.0153C106.469 24.5204 107.123 23.7729 108.258 23.7729C109.436 23.7729 110.09 24.6963 110.003 25.9273V27.5981H111.356V28.2576H110.003C109.916 29.4447 109.305 30.1922 108.04 30.1922ZM108.301 24.4325C107.56 24.4325 107.211 24.9601 107.211 26.0592C107.211 27.1145 107.56 27.6421 108.301 27.6421H109.392C109.392 27.6421 109.392 26.4989 109.392 26.0592C109.392 24.9601 109 24.4325 108.301 24.4325Z" fill="#575756"/>
<path id="Vector_61" d="M117.989 28.2572H117.509C116.942 28.2572 116.549 28.1253 116.2 27.7736C115.982 28.521 115.415 28.9167 114.586 28.9167C113.757 28.9167 113.277 28.521 112.971 27.8615C112.666 28.1253 112.273 28.2572 111.793 28.2572H111.27V27.5977H111.706C112.317 27.5977 112.709 27.246 112.753 26.6304C112.797 25.4433 113.277 24.564 114.542 24.564C115.677 24.564 116.2 25.2674 116.288 26.4106C116.288 27.202 116.637 27.5977 117.378 27.5977H117.946V28.2572H117.989ZM114.586 25.2235C113.844 25.2235 113.539 25.7071 113.539 26.7184C113.539 27.7736 113.844 28.2572 114.586 28.2572C115.328 28.2572 115.633 27.7736 115.633 26.7184C115.633 25.7071 115.371 25.2235 114.586 25.2235Z" fill="#575756"/>
<path id="Vector_62" d="M120.126 26.4989C120.126 27.5102 119.471 28.2137 118.424 28.2137H117.9V27.5541H118.38C119.079 27.5541 119.428 27.1584 119.428 26.367V22.0143L120.126 21.7944V26.4989Z" fill="#575756"/>
<path id="Vector_63" d="M121.872 28.2572H121.174V21.9698L121.872 21.75V28.2572Z" fill="#575756"/>
<path id="Vector_64" d="M129.29 28.2573H128.941C128.287 28.2573 127.807 28.0374 127.501 27.5538C127.239 28.0374 126.759 28.2573 126.061 28.2573C125.014 28.2573 124.359 27.5538 124.359 25.971C124.359 24.6959 124.839 23.7286 126.061 23.6847H127.894V26.4106C127.894 27.2021 128.243 27.5978 128.985 27.5978H129.246V28.2573H129.29ZM127.239 24.3002H126.148C125.407 24.3002 125.014 24.8718 125.014 25.971C125.014 27.1141 125.363 27.5978 126.148 27.5978C126.89 27.5978 127.239 27.1141 127.239 25.971V24.3002ZM125.887 22.4096C125.625 22.4096 125.45 22.2777 125.45 21.9699C125.45 21.6622 125.581 21.5303 125.887 21.5303C126.148 21.5303 126.279 21.6622 126.279 21.9699C126.279 22.2777 126.192 22.4096 125.887 22.4096ZM127.196 22.4096C126.934 22.4096 126.803 22.2777 126.803 21.9699C126.803 21.6622 126.934 21.5303 127.196 21.5303C127.457 21.5303 127.632 21.6622 127.632 21.9699C127.632 22.2777 127.501 22.4096 127.196 22.4096Z" fill="#575756"/>
<path id="Vector_65" d="M130.512 24.9161L131.21 24.6963V27.5981H133.304V24.4764L134.002 24.2566V27.5981C135.224 27.5981 136.184 27.5981 136.184 27.5981V23.9928L136.882 23.7729V27.5981H138.148V28.2576H129.246V27.5981H130.599V24.9161H130.512Z" fill="#575756"/>
<path id="Vector_66" d="M145.652 26.4985C145.652 27.5537 145.041 28.2132 143.951 28.2132H137.973V27.5537H139.282V24.7838L139.98 24.5639V27.5537H142.074V24.3441L142.772 24.1243V27.5537H143.863C144.562 27.5537 144.954 27.158 144.954 26.3666V23.8605L145.652 23.6406V26.4985Z" fill="#575756"/>
<path id="Vector_67" d="M148.053 30.192C147.704 30.192 147.399 30.104 147.093 29.9721L146.744 29.1807C147.268 29.4445 147.704 29.5325 148.053 29.5325C148.839 29.5325 149.231 29.0048 149.319 28.2134H148.271C147.181 28.2134 146.482 27.466 146.482 26.0151C146.482 24.5202 147.137 23.7727 148.271 23.7727C149.45 23.7727 150.104 24.696 150.017 25.9271V27.5979H151.37V28.2574H150.017C149.93 29.4445 149.319 30.192 148.053 30.192ZM149.493 23.1572H146.613L147.05 22.7175H147.486V22.4977C147.486 21.7942 147.922 21.2666 148.621 21.2666C148.926 21.2666 149.144 21.3985 149.406 21.6183L149.057 21.9701C148.882 21.7942 148.708 21.7063 148.577 21.7063C148.228 21.7063 147.966 22.014 147.966 22.4098V22.7615H149.537V23.1572H149.493ZM148.315 24.4322C147.573 24.4322 147.224 24.9599 147.224 26.059C147.224 27.1143 147.573 27.6419 148.315 27.6419H149.406C149.406 27.6419 149.406 26.4987 149.406 26.059C149.406 24.9599 149.013 24.4322 148.315 24.4322Z" fill="#575756"/>
<path id="Vector_68" d="M154.468 28.2576C153.901 28.2576 153.421 28.0378 153.115 27.5981C152.853 28.0817 152.199 28.2576 151.719 28.2576H151.326V27.5981H151.675C152.417 27.5981 152.766 27.2024 152.766 26.411C152.766 26.367 152.766 26.323 152.766 26.0153C152.766 24.5204 153.421 23.8169 154.512 23.8169C155.646 23.8169 156.257 24.5643 156.257 26.0153C156.213 27.5101 155.559 28.2576 154.468 28.2576ZM154.468 24.4764C153.77 24.4764 153.421 25.004 153.421 26.0592C153.421 27.1144 153.77 27.5981 154.468 27.5981C155.166 27.5981 155.515 27.0705 155.515 26.0592C155.515 25.004 155.166 24.4764 154.468 24.4764Z" fill="#575756"/>
</g>
</g>
<g id="Group_5">
<g id="Group_6">
<path id="Vector_69" d="M201.331 35.4242C201.331 35.4242 202.858 32.9621 197.884 31.9508C192.517 30.8956 187.106 31.4232 182.917 33.3578C178.728 35.2923 177.594 34.6768 177.594 34.6768C177.594 34.6768 180.125 33.4897 187.804 35.6441C193.128 37.1389 198.8 36.8312 199.673 36.4355C200.589 36.0398 201.331 35.4242 201.331 35.4242Z" fill="#8C6829"/>
<path id="Vector_70" d="M172.62 24.7844C171.616 23.905 169.565 21.8386 168.475 18.541C168.125 17.5298 167.558 15.5952 167.864 13.177C168.387 9.21997 170.962 5.57068 170.962 5.61465C170.264 6.14226 164.198 11.1545 164.373 18.3652C164.46 22.1463 166.293 25.4439 166.642 26.0594C167.602 27.7742 168.649 28.8294 169.609 29.8406C173.405 33.8416 177.42 35.8641 179.427 36.8314C181.652 37.8866 183.572 38.5461 184.532 38.8539C186.147 39.3815 187.194 39.6014 189.157 40.085C191.994 40.7445 193.303 40.9204 194.743 40.7005C195.092 40.6566 195.572 40.5247 195.921 40.3048C197.841 39.0737 199.935 37.403 201.375 35.6003C196.881 35.1607 192.954 34.5012 190.205 33.7977C187.325 33.0502 184.794 32.4347 181.696 30.9838C177.638 28.9613 174.671 26.631 172.62 24.7844Z" fill="#C09949"/>
<path id="Vector_71" d="M180.168 22.0143C179.12 22.7177 180.124 24.2566 181.171 23.6411C181.433 23.5091 181.651 23.3772 181.869 23.2453C184.226 21.9703 189.113 20.8711 194.567 21.9703C199.803 23.0255 202.378 22.9815 204.123 22.322C205.17 21.9263 205.956 20.6513 205.956 20.6513C205.956 20.6513 206.218 18.365 200.196 17.7494C195.527 17.2658 186.669 17.6615 180.168 22.0143Z" fill="#286B96"/>
<path id="Vector_72" d="M202.597 10.6708C202.684 10.407 202.641 10.1432 202.466 9.92338C201.986 9.39577 200.677 8.42849 198.539 8.16469C196.183 7.85692 190.248 7.06551 183.398 9.74751C182.525 10.0993 183.965 11.3743 184.838 11.0665L183.965 11.2864C183.965 11.2864 182.394 11.0665 187.587 11.4622C191.819 11.77 196.445 13.089 198.801 12.8252C200.983 12.6494 202.161 11.814 202.597 10.6708Z" fill="#7C7B7C"/>
<path id="Vector_73" d="M181.957 41.1398C185.797 39.9527 188.371 40.3923 189.855 40.832C190.16 40.9199 191.819 41.4476 191.775 41.9312C191.731 42.3709 190.335 42.6347 188.764 42.9424C188.153 43.0743 187.673 43.1623 186.975 43.2502C183.79 43.6019 181.084 43.0743 180.735 43.0304C180.517 42.9864 178.51 42.5907 176.459 41.6674C173.754 40.4803 167.819 37.0508 164.983 29.9721C163.238 25.6193 163.369 21.6183 163.63 19.376C163.543 21.4864 163.5 28.5212 168.256 34.149C171.267 37.7103 175.237 39.6009 176.677 40.2604C177.419 40.6122 179.077 41.3596 181.346 41.8872C183.79 42.4588 185.404 42.4588 186.364 42.4148C187.324 42.3709 188.851 42.151 188.851 41.8872C188.851 41.5795 186.975 41.3157 186.539 41.2717C185.404 41.0958 183.833 40.9639 181.957 41.1398Z" fill="#C09949"/>
<path id="Vector_74" d="M189.943 2.88837C189.856 2.93234 189.245 3.28408 189.158 3.89962C189.071 4.29532 189.201 4.6031 189.289 4.77896C189.551 5.39451 190.074 5.74624 190.729 6.05402C190.99 6.18592 192.038 6.62559 194.525 6.88939C195.179 6.93336 196.052 6.97733 197.099 6.88939C198.321 6.80146 198.888 6.75749 199.019 6.49369C199.368 5.65831 196.227 3.54788 196.008 3.41598C195.485 3.06424 193.478 1.78919 190.86 1.21761C189.943 1.04175 188.809 0.821909 188.416 0.777942C188.285 0.777942 187.369 0.602073 186.147 0.558105C186.103 0.558105 188.852 1.26158 190.074 1.56935C190.598 1.70125 191.252 1.87712 191.95 2.18489C192.387 2.36076 192.692 2.53663 193.347 2.8444C194.35 3.32804 194.83 3.63581 195.267 4.07549C195.572 4.38326 195.747 4.51516 195.703 4.69103C195.616 5.17467 194.35 5.39451 193.478 5.39451C192.474 5.39451 190.38 5.17467 190.118 4.07549C189.943 3.32804 191.34 2.62457 191.732 2.62457C193.129 2.5806 190.947 2.36076 189.943 2.88837Z" fill="#C7C7C6"/>
<path id="Vector_75" d="M199.454 11.8578C198.887 11.9897 198.363 12.0776 197.796 12.1216C196.924 12.1656 196.051 12.2095 194.698 12.1216C192.604 11.9457 190.989 11.638 190.466 11.55C186.582 10.7586 184.619 10.3629 182.786 8.912C181.259 7.72489 180.953 6.75761 180.866 6.18603C180.735 5.17478 181.215 4.33941 181.433 3.9437C182.175 2.53675 183.484 1.92121 184.051 1.6574C184.4 1.48153 184.706 1.3936 184.924 1.30566C184.095 1.3936 183.44 1.5255 182.917 1.70137C182.568 1.7893 181.957 1.96517 181.259 2.36088C180.56 2.71262 180.037 3.10832 179.688 3.46006C179.208 3.85577 178.335 4.69114 178.03 5.9662C177.637 7.59299 178.379 9.04391 178.728 9.65945C181.695 15.2873 192.735 16.6942 194 16.8261C195.615 17.046 196.967 17.1779 197.971 17.2218C201.854 17.4417 203.6 17.1339 204.472 16.8701C204.865 16.7821 205.214 16.6063 205.432 16.5183C205.432 16.5183 204.778 13.4406 202.596 10.0991C202.902 10.6267 200.982 11.55 199.454 11.8578Z" fill="#C7C7C6"/>
<path id="Vector_76" d="M194.743 21.003C184.096 18.233 178.205 14.32 175.936 11.0664C173.711 7.81279 173.885 1.78928 183.878 0.426291C183.921 0.426291 183.921 0.382324 183.878 0.382324C182.045 0.426291 173.231 0.997866 170.918 8.29643C167.733 18.233 183.965 26.4989 186.801 27.686C189.681 28.8731 196.968 32.2146 203.993 30.2801C204.255 30.1921 204.517 29.9283 204.604 29.7085C206.306 25.9273 206 20.7392 206 20.5633C205.957 20.4754 201.681 22.8496 194.743 21.003Z" fill="#4384B8"/>
</g>
</g>
</g>
</g>
<defs>
<clipPath id="clip0_158_12156">
<rect width="206" height="43" fill="white" transform="translate(0 0.382324)"/>
</clipPath>
</defs>
</svg>
